<?xml version="1.0" encoding="utf-8"?>
<!-- Generator: Adobe Illustrator 17.1.0, SVG Export Plug-In . SVG Version: 6.00 Build 0)  -->
<!DOCTYPE svg PUBLIC "-//W3C//DTD SVG 1.1//EN" "http://www.w3.org/Graphics/SVG/1.1/DTD/svg11.dtd">
<svg version="1.1" id="Capa_1" xmlns="http://www.w3.org/2000/svg" xmlns:xlink="http://www.w3.org/1999/xlink" x="0px" y="0px"
	 viewBox="0 0 59.8 49.6" enable-background="new 0 0 59.8 49.6" xml:space="preserve">
<path fill="#50B298" d="M11,29.7c-0.8-0.3-1.6-0.6-2.3-1c-4.1-2-6.3-5.4-6.9-9.8c-0.2-1.1,0.1-1.4,1.2-0.8c1.2,0.6,2.5,0.7,4.3,1
	c-5.8-4.7-6.5-10.2-4-16.4c0.7,0,0.9,0.6,1.2,0.9c6.1,7,13.9,10.9,23.1,11.8c1.4,0.1,1.6-0.4,1.5-1.6C28,5.1,35.7-0.4,42.1,0
	c2.9,0.2,5.4,1.3,7.6,3.3c0.6,0.5,1.1,0.7,1.9,0.5c2.2-0.6,4.3-1.4,6.7-2.7c-0.9,2.8-2.6,4.7-4.9,6.6c2.5-0.2,4.3-0.9,6.5-1.6
	c-1.5,2.3-3.1,4.1-5.1,5.5c-0.7,0.6-1,1.1-1,2c0,14.9-8.6,28.1-22.5,33.5c-10.7,4.2-21.1,2.9-31.1-2.7c-0.1,0-0.1-0.2-0.3-0.4
	c6.4,0.2,12.3-1.2,17.6-5.3c-5.2-0.4-8.7-2.8-10.9-7.2c-0.2-0.4-0.6-0.9-0.4-1.3c0.3-0.5,0.8-0.1,1.3-0.1C8.7,30.4,9.8,30.2,11,29.7
	z"/>
</svg>
