<?xml version="1.0" encoding="utf-8"?>
<!-- Generator: Adobe Illustrator 17.1.0, SVG Export Plug-In . SVG Version: 6.00 Build 0)  -->
<!DOCTYPE svg PUBLIC "-//W3C//DTD SVG 1.1//EN" "http://www.w3.org/Graphics/SVG/1.1/DTD/svg11.dtd">
<svg version="1.1" id="Capa_1" xmlns="http://www.w3.org/2000/svg" xmlns:xlink="http://www.w3.org/1999/xlink" x="0px" y="0px"
	 viewBox="0 0 31.4 31.4" enable-background="new 0 0 31.4 31.4" xml:space="preserve">
<rect x="-910.2" y="4017.4" fill="#5F827A" width="2560" height="932"/>
<rect x="-911.3" y="2756.3" fill="#18293D" width="2560" height="1261.1"/>
<rect x="-911.3" y="312" fill="#18293D" width="2560" height="176"/>
<g>
	<defs>
		<rect id="SVGID_1_" x="-911.3" y="151" width="2560" height="161"/>
	</defs>
	<clipPath id="SVGID_2_">
		<use xlink:href="#SVGID_1_"  overflow="visible"/>
	</clipPath>
	<g clip-path="url(#SVGID_2_)">
		
			<image overflow="visible" width="2784" height="1778" xlink:href="B341C3EC2E062C25.png"  transform="matrix(0.9992 0 0 0.9992 -1024.9843 77.0327)">
		</image>
	</g>
</g>
<g>
	<text transform="matrix(1 0 0 1 -779.4736 416.5096)" fill="#DFDDBE" font-family="'Impact'" font-size="62.083">richi concepts</text>
</g>
<rect x="0" y="0" fill="#02243C" width="31.4" height="31.4"/>
<g>
	<g>
		<g>
			<path fill="#FFFFFF" d="M252.3,46.1h1.8v0.8c0.2-0.3,0.4-0.5,0.7-0.7c0.3-0.2,0.6-0.2,1-0.2c0,0,0.1,0,0.2,0c0.1,0,0.1,0,0.2,0
				v1.7c-0.2-0.1-0.5-0.2-0.8-0.2c-0.4,0-0.7,0.1-0.9,0.4c-0.2,0.2-0.3,0.6-0.3,1.1V51h-1.8V46.1z"/>
			<path fill="#FFFFFF" d="M256.7,44.2c0-0.1,0-0.3,0.1-0.4c0.1-0.1,0.1-0.2,0.2-0.3c0.1-0.1,0.2-0.2,0.3-0.2
				c0.1-0.1,0.2-0.1,0.4-0.1s0.3,0,0.4,0.1c0.1,0.1,0.2,0.1,0.3,0.2c0.1,0.1,0.2,0.2,0.2,0.3c0.1,0.1,0.1,0.2,0.1,0.4s0,0.3-0.1,0.4
				c-0.1,0.1-0.1,0.2-0.2,0.3c-0.1,0.1-0.2,0.2-0.3,0.2c-0.1,0.1-0.2,0.1-0.4,0.1s-0.3,0-0.4-0.1c-0.1-0.1-0.2-0.1-0.3-0.2
				c-0.1-0.1-0.2-0.2-0.2-0.3C256.7,44.4,256.7,44.3,256.7,44.2z M258.6,46.1v5h-1.8v-5H258.6z"/>
			<path fill="#FFFFFF" d="M263.5,47.7c-0.3-0.2-0.6-0.3-0.9-0.3c-0.2,0-0.3,0-0.5,0.1c-0.1,0.1-0.3,0.1-0.4,0.2
				c-0.1,0.1-0.2,0.2-0.3,0.4c-0.1,0.1-0.1,0.3-0.1,0.5c0,0.2,0,0.3,0.1,0.5c0.1,0.1,0.1,0.3,0.3,0.4c0.1,0.1,0.2,0.2,0.4,0.2
				c0.1,0.1,0.3,0.1,0.5,0.1c0.3,0,0.6-0.1,0.9-0.3v1.5c-0.4,0.2-0.8,0.3-1.2,0.3c-0.4,0-0.7-0.1-1-0.2c-0.3-0.1-0.6-0.3-0.9-0.5
				c-0.2-0.2-0.4-0.5-0.6-0.8c-0.1-0.3-0.2-0.7-0.2-1.1c0-0.4,0.1-0.8,0.2-1.1c0.1-0.3,0.3-0.6,0.6-0.8c0.2-0.2,0.5-0.4,0.9-0.6
				c0.3-0.1,0.7-0.2,1.1-0.2c0.4,0,0.8,0.1,1.2,0.3V47.7z"/>
			<path fill="#FFFFFF" d="M264.8,43h1.8v3.7c0.2-0.3,0.5-0.5,0.7-0.6c0.2-0.1,0.5-0.2,0.9-0.2c0.6,0,1.1,0.2,1.4,0.5
				c0.3,0.3,0.5,0.8,0.5,1.4V51h-1.8v-2.5c0-0.3,0-0.5-0.1-0.6c0-0.2-0.1-0.3-0.2-0.4c-0.2-0.1-0.3-0.2-0.6-0.2
				c-0.3,0-0.5,0.1-0.7,0.3c-0.2,0.2-0.2,0.4-0.2,0.8V51h-1.8V43z"/>
			<path fill="#FFFFFF" d="M271.1,44.2c0-0.1,0-0.3,0.1-0.4c0.1-0.1,0.1-0.2,0.2-0.3c0.1-0.1,0.2-0.2,0.3-0.2
				c0.1-0.1,0.2-0.1,0.4-0.1s0.3,0,0.4,0.1c0.1,0.1,0.2,0.1,0.3,0.2c0.1,0.1,0.2,0.2,0.2,0.3c0.1,0.1,0.1,0.2,0.1,0.4s0,0.3-0.1,0.4
				c-0.1,0.1-0.1,0.2-0.2,0.3c-0.1,0.1-0.2,0.2-0.3,0.2c-0.1,0.1-0.2,0.1-0.4,0.1s-0.3,0-0.4-0.1c-0.1-0.1-0.2-0.1-0.3-0.2
				c-0.1-0.1-0.2-0.2-0.2-0.3C271.1,44.4,271.1,44.3,271.1,44.2z M273,46.1v5h-1.8v-5H273z"/>
		</g>
	</g>
</g>
<text transform="matrix(1 0 0 1 645.0259 409.35)" fill="#FFFFFF" font-family="'Oswald-Bold'" font-size="32">Inicio</text>
<text transform="matrix(1 0 0 1 787.0896 413.8664)" fill="#DFDDBE" font-family="'Oswald-Light'" font-size="32">Diseños</text>
<text transform="matrix(1 0 0 1 952.2139 413.8664)" fill="#DFDDBE" font-family="'Oswald-Light'" font-size="32">Quién soy?</text>
<text transform="matrix(1 0 0 1 1163.1056 413.8664)" fill="#DFDDBE" font-family="'Oswald-Light'" font-size="32">FAQs</text>
<text transform="matrix(1 0 0 1 1286.0358 413.8664)" fill="#DFDDBE" font-family="'Oswald-Light'" font-size="32">Contact</text>
<g>
	<g>
		<g>
			<path fill="#6AAB92" d="M1485,411.8c-10.8,0-19.5-8.8-19.5-19.5c0-10.8,8.8-19.5,19.5-19.5s19.5,8.8,19.5,19.5
				C1504.5,403.1,1495.8,411.8,1485,411.8z M1485,377.8c-8,0-14.5,6.5-14.5,14.5s6.5,14.5,14.5,14.5s14.5-6.5,14.5-14.5
				S1493,377.8,1485,377.8z"/>
		</g>
		<g>
			<path fill="#6AAB92" d="M1512.9,424.9c-0.6,0-1.3-0.2-1.8-0.7l-16.1-16.1c-1-1-1-2.6,0-3.5c1-1,2.6-1,3.5,0l16.1,16.1
				c1,1,1,2.6,0,3.5C1514.2,424.6,1513.6,424.9,1512.9,424.9z"/>
		</g>
	</g>
</g>
<g>
	<g>
		<g>
			<path fill="#6AAB92" d="M575.4-136.7c-10.8,0-19.5-8.8-19.5-19.5c0-10.8,8.8-19.5,19.5-19.5s19.5,8.8,19.5,19.5
				C594.9-145.5,586.2-136.7,575.4-136.7z M575.4-170.8c-8,0-14.5,6.5-14.5,14.5s6.5,14.5,14.5,14.5s14.5-6.5,14.5-14.5
				S583.4-170.8,575.4-170.8z"/>
		</g>
		<g>
			<path fill="#6AAB92" d="M603.3-123.7c-0.6,0-1.3-0.2-1.8-0.7l-16.1-16.1c-1-1-1-2.6,0-3.5c1-1,2.6-1,3.5,0l16.1,16.1
				c1,1,1,2.6,0,3.5C604.6-123.9,603.9-123.7,603.3-123.7z"/>
		</g>
	</g>
</g>
<line fill="none" stroke="#6AAB92" stroke-width="4.9419" stroke-miterlimit="10" x1="645.8" y1="425" x2="727.8" y2="425"/>
<rect x="-910.2" y="1508.2" fill="#18293D" width="2560" height="1248.1"/>
<text transform="matrix(1 0 0 1 -776.186 1896.6287)"><tspan x="0" y="0" fill="#DFDDBE" font-family="'Oswald-Bold'" font-size="155.6688">CÓmo surgiÓ</tspan><tspan x="0" y="186.8" fill="#DFDDBE" font-family="'Oswald-Bold'" font-size="155.6688">Richi Concepts?</tspan></text>
<g>
	<rect x="440.9" y="1719.5" fill="none" width="1076.7" height="546.1"/>
	<text transform="matrix(1 0 0 1 440.9176 1749.8732)"><tspan x="0" y="0" fill="#FFFFFF" font-family="'OpenSans'" font-size="40">Lorem</tspan><tspan x="120.9" y="0" fill="#FFFFFF" font-family="'OpenSans'" font-size="40" letter-spacing="6"> </tspan><tspan x="137.9" y="0" fill="#FFFFFF" font-family="'OpenSans'" font-size="40">ipsum</tspan><tspan x="253.4" y="0" fill="#FFFFFF" font-family="'OpenSans'" font-size="40" letter-spacing="6"> </tspan><tspan x="270.4" y="0" fill="#FFFFFF" font-family="'OpenSans'" font-size="40">dolor</tspan><tspan x="369.7" y="0" fill="#FFFFFF" font-family="'OpenSans'" font-size="40" letter-spacing="6"> </tspan><tspan x="386.7" y="0" fill="#FFFFFF" font-family="'OpenSans'" font-size="40">sit</tspan><tspan x="430.1" y="0" fill="#FFFFFF" font-family="'OpenSans'" font-size="40" letter-spacing="6"> </tspan><tspan x="447.1" y="0" fill="#FFFFFF" font-family="'OpenSans'" font-size="40">amet,</tspan><tspan x="552.9" y="0" fill="#FFFFFF" font-family="'OpenSans'" font-size="40" letter-spacing="6"> </tspan><tspan x="569.9" y="0" fill="#FFFFFF" font-family="'OpenSans'" font-size="40">consectetur</tspan><tspan x="789.8" y="0" fill="#FFFFFF" font-family="'OpenSans'" font-size="40" letter-spacing="6"> </tspan><tspan x="806.9" y="0" fill="#FFFFFF" font-family="'OpenSans'" font-size="40">adipiscing</tspan><tspan x="993.1" y="0" fill="#FFFFFF" font-family="'OpenSans'" font-size="40" letter-spacing="6"> </tspan><tspan x="1010.1" y="0" fill="#FFFFFF" font-family="'OpenSans'" font-size="40">elit, </tspan><tspan x="0" y="48" fill="#FFFFFF" font-family="'OpenSans'" font-size="40">sed</tspan><tspan x="66" y="48" fill="#FFFFFF" font-family="'OpenSans'" font-size="40" letter-spacing="9"> </tspan><tspan x="85.8" y="48" fill="#FFFFFF" font-family="'OpenSans'" font-size="40">do</tspan><tspan x="134.5" y="48" fill="#FFFFFF" font-family="'OpenSans'" font-size="40" letter-spacing="9"> </tspan><tspan x="154.3" y="48" fill="#FFFFFF" font-family="'OpenSans'" font-size="40">eiusmod</tspan><tspan x="316.3" y="48" fill="#FFFFFF" font-family="'OpenSans'" font-size="40" letter-spacing="9"> </tspan><tspan x="336.1" y="48" fill="#FFFFFF" font-family="'OpenSans'" font-size="40">tempor</tspan><tspan x="474.9" y="48" fill="#FFFFFF" font-family="'OpenSans'" font-size="40" letter-spacing="9"> </tspan><tspan x="494.7" y="48" fill="#FFFFFF" font-family="'OpenSans'" font-size="40">incididunt</tspan><tspan x="680.8" y="48" fill="#FFFFFF" font-family="'OpenSans'" font-size="40" letter-spacing="9"> </tspan><tspan x="700.6" y="48" fill="#FFFFFF" font-family="'OpenSans'" font-size="40">ut</tspan><tspan x="739.3" y="48" fill="#FFFFFF" font-family="'OpenSans'" font-size="40" letter-spacing="9"> </tspan><tspan x="759.1" y="48" fill="#FFFFFF" font-family="'OpenSans'" font-size="40">labore</tspan><tspan x="878.9" y="48" fill="#FFFFFF" font-family="'OpenSans'" font-size="40" letter-spacing="9"> </tspan><tspan x="898.7" y="48" fill="#FFFFFF" font-family="'OpenSans'" font-size="40">et</tspan><tspan x="935.2" y="48" fill="#FFFFFF" font-family="'OpenSans'" font-size="40" letter-spacing="9"> </tspan><tspan x="955" y="48" fill="#FFFFFF" font-family="'OpenSans'" font-size="40">dolore </tspan><tspan x="0" y="96" fill="#FFFFFF" font-family="'OpenSans'" font-size="40">magna</tspan><tspan x="128.2" y="96" fill="#FFFFFF" font-family="'OpenSans'" font-size="40" letter-spacing="8"> </tspan><tspan x="146.7" y="96" fill="#FFFFFF" font-family="'OpenSans'" font-size="40">aliqua.</tspan><tspan x="271.2" y="96" fill="#FFFFFF" font-family="'OpenSans'" font-size="40" letter-spacing="8"> </tspan><tspan x="289.8" y="96" fill="#FFFFFF" font-family="'OpenSans'" font-size="40">Ut</tspan><tspan x="333" y="96" fill="#FFFFFF" font-family="'OpenSans'" font-size="40" letter-spacing="8"> </tspan><tspan x="351.6" y="96" fill="#FFFFFF" font-family="'OpenSans'" font-size="40">enim</tspan><tspan x="445.9" y="96" fill="#FFFFFF" font-family="'OpenSans'" font-size="40" letter-spacing="8"> </tspan><tspan x="464.5" y="96" fill="#FFFFFF" font-family="'OpenSans'" font-size="40">ad</tspan><tspan x="511.2" y="96" fill="#FFFFFF" font-family="'OpenSans'" font-size="40" letter-spacing="8"> </tspan><tspan x="529.8" y="96" fill="#FFFFFF" font-family="'OpenSans'" font-size="40">minim</tspan><tspan x="649" y="96" fill="#FFFFFF" font-family="'OpenSans'" font-size="40" letter-spacing="8"> </tspan><tspan x="667.6" y="96" fill="#FFFFFF" font-family="'OpenSans'" font-size="40">veniam,</tspan><tspan x="814" y="96" fill="#FFFFFF" font-family="'OpenSans'" font-size="40" letter-spacing="8"> </tspan><tspan x="832.6" y="96" fill="#FFFFFF" font-family="'OpenSans'" font-size="40">quis</tspan><tspan x="910.8" y="96" fill="#FFFFFF" font-family="'OpenSans'" font-size="40" letter-spacing="8"> </tspan><tspan x="929.4" y="96" fill="#FFFFFF" font-family="'OpenSans'" font-size="40">nostrud </tspan><tspan x="0" y="144" fill="#FFFFFF" font-family="'OpenSans'" font-size="40">exercitation</tspan><tspan x="220.6" y="144" fill="#FFFFFF" font-family="'OpenSans'" font-size="40" letter-spacing="-1"> </tspan><tspan x="230" y="144" fill="#FFFFFF" font-family="'OpenSans'" font-size="40">ullamco</tspan><tspan x="377.4" y="144" fill="#FFFFFF" font-family="'OpenSans'" font-size="40" letter-spacing="-1"> </tspan><tspan x="386.8" y="144" fill="#FFFFFF" font-family="'OpenSans'" font-size="40">laboris</tspan><tspan x="513.4" y="144" fill="#FFFFFF" font-family="'OpenSans'" font-size="40" letter-spacing="-1"> </tspan><tspan x="522.7" y="144" fill="#FFFFFF" font-family="'OpenSans'" font-size="40">nisi</tspan><tspan x="586.6" y="144" fill="#FFFFFF" font-family="'OpenSans'" font-size="40" letter-spacing="-1"> </tspan><tspan x="595.9" y="144" fill="#FFFFFF" font-family="'OpenSans'" font-size="40">ut</tspan><tspan x="634.6" y="144" fill="#FFFFFF" font-family="'OpenSans'" font-size="40" letter-spacing="-1"> </tspan><tspan x="643.9" y="144" fill="#FFFFFF" font-family="'OpenSans'" font-size="40">aliquip</tspan><tspan x="770.1" y="144" fill="#FFFFFF" font-family="'OpenSans'" font-size="40" letter-spacing="-1"> </tspan><tspan x="779.5" y="144" fill="#FFFFFF" font-family="'OpenSans'" font-size="40">ex</tspan><tspan x="822.9" y="144" fill="#FFFFFF" font-family="'OpenSans'" font-size="40" letter-spacing="-1"> </tspan><tspan x="832.2" y="144" fill="#FFFFFF" font-family="'OpenSans'" font-size="40">ea</tspan><tspan x="876.9" y="144" fill="#FFFFFF" font-family="'OpenSans'" font-size="40" letter-spacing="-1"> </tspan><tspan x="886.3" y="144" fill="#FFFFFF" font-family="'OpenSans'" font-size="40">commodo </tspan><tspan x="0" y="192" fill="#FFFFFF" font-family="'OpenSans'" font-size="40">consequat. </tspan><tspan x="0" y="288" fill="#FFFFFF" font-family="'OpenSans'" font-size="40">Duis</tspan><tspan x="82.9" y="288" fill="#FFFFFF" font-family="'OpenSans'" font-size="40" letter-spacing="6"> </tspan><tspan x="100.1" y="288" fill="#FFFFFF" font-family="'OpenSans'" font-size="40">aute</tspan><tspan x="183.5" y="288" fill="#FFFFFF" font-family="'OpenSans'" font-size="40" letter-spacing="6"> </tspan><tspan x="200.7" y="288" fill="#FFFFFF" font-family="'OpenSans'" font-size="40">irure</tspan><tspan x="290.5" y="288" fill="#FFFFFF" font-family="'OpenSans'" font-size="40" letter-spacing="6"> </tspan><tspan x="307.7" y="288" fill="#FFFFFF" font-family="'OpenSans'" font-size="40">dolor</tspan><tspan x="407" y="288" fill="#FFFFFF" font-family="'OpenSans'" font-size="40" letter-spacing="6"> </tspan><tspan x="424.2" y="288" fill="#FFFFFF" font-family="'OpenSans'" font-size="40">in</tspan><tspan x="458.9" y="288" fill="#FFFFFF" font-family="'OpenSans'" font-size="40" letter-spacing="6"> </tspan><tspan x="476.1" y="288" fill="#FFFFFF" font-family="'OpenSans'" font-size="40">reprehenderit</tspan><tspan x="737.2" y="288" fill="#FFFFFF" font-family="'OpenSans'" font-size="40" letter-spacing="6"> </tspan><tspan x="754.4" y="288" fill="#FFFFFF" font-family="'OpenSans'" font-size="40">in</tspan><tspan x="789.1" y="288" fill="#FFFFFF" font-family="'OpenSans'" font-size="40" letter-spacing="6"> </tspan><tspan x="806.3" y="288" fill="#FFFFFF" font-family="'OpenSans'" font-size="40">voluptate</tspan><tspan x="982.6" y="288" fill="#FFFFFF" font-family="'OpenSans'" font-size="40" letter-spacing="6"> </tspan><tspan x="999.9" y="288" fill="#FFFFFF" font-family="'OpenSans'" font-size="40">velit </tspan><tspan x="0" y="336" fill="#FFFFFF" font-family="'OpenSans'" font-size="40">esse</tspan><tspan x="83" y="336" fill="#FFFFFF" font-family="'OpenSans'" font-size="40" letter-spacing="2"> </tspan><tspan x="95.6" y="336" fill="#FFFFFF" font-family="'OpenSans'" font-size="40">cillum</tspan><tspan x="206.7" y="336" fill="#FFFFFF" font-family="'OpenSans'" font-size="40" letter-spacing="2"> </tspan><tspan x="219.2" y="336" fill="#FFFFFF" font-family="'OpenSans'" font-size="40">dolore</tspan><tspan x="340.9" y="336" fill="#FFFFFF" font-family="'OpenSans'" font-size="40" letter-spacing="2"> </tspan><tspan x="353.5" y="336" fill="#FFFFFF" font-family="'OpenSans'" font-size="40">eu</tspan><tspan x="400.5" y="336" fill="#FFFFFF" font-family="'OpenSans'" font-size="40" letter-spacing="2"> </tspan><tspan x="413" y="336" fill="#FFFFFF" font-family="'OpenSans'" font-size="40">fugiat</tspan><tspan x="519.5" y="336" fill="#FFFFFF" font-family="'OpenSans'" font-size="40" letter-spacing="2"> </tspan><tspan x="532" y="336" fill="#FFFFFF" font-family="'OpenSans'" font-size="40">nulla</tspan><tspan x="623.6" y="336" fill="#FFFFFF" font-family="'OpenSans'" font-size="40" letter-spacing="2"> </tspan><tspan x="636.1" y="336" fill="#FFFFFF" font-family="'OpenSans'" font-size="40">pariatur.</tspan><tspan x="797.2" y="336" fill="#FFFFFF" font-family="'OpenSans'" font-size="40" letter-spacing="2"> </tspan><tspan x="809.7" y="336" fill="#FFFFFF" font-family="'OpenSans'" font-size="40">Excepteur</tspan><tspan x="996.3" y="336" fill="#FFFFFF" font-family="'OpenSans'" font-size="40" letter-spacing="2"> </tspan><tspan x="1008.8" y="336" fill="#FFFFFF" font-family="'OpenSans'" font-size="40">sint </tspan><tspan x="0" y="384" fill="#FFFFFF" font-family="'OpenSans'" font-size="40">occaecat</tspan><tspan x="162.3" y="384" fill="#FFFFFF" font-family="'OpenSans'" font-size="40" letter-spacing="2"> </tspan><tspan x="175.5" y="384" fill="#FFFFFF" font-family="'OpenSans'" font-size="40">cupidatat</tspan><tspan x="351" y="384" fill="#FFFFFF" font-family="'OpenSans'" font-size="40" letter-spacing="2"> </tspan><tspan x="364.2" y="384" fill="#FFFFFF" font-family="'OpenSans'" font-size="40">non</tspan><tspan x="437.5" y="384" fill="#FFFFFF" font-family="'OpenSans'" font-size="40" letter-spacing="2"> </tspan><tspan x="450.7" y="384" fill="#FFFFFF" font-family="'OpenSans'" font-size="40">proident,</tspan><tspan x="621.2" y="384" fill="#FFFFFF" font-family="'OpenSans'" font-size="40" letter-spacing="2"> </tspan><tspan x="634.4" y="384" fill="#FFFFFF" font-family="'OpenSans'" font-size="40">sunt</tspan><tspan x="716.7" y="384" fill="#FFFFFF" font-family="'OpenSans'" font-size="40" letter-spacing="2"> </tspan><tspan x="729.9" y="384" fill="#FFFFFF" font-family="'OpenSans'" font-size="40">in</tspan><tspan x="764.6" y="384" fill="#FFFFFF" font-family="'OpenSans'" font-size="40" letter-spacing="2"> </tspan><tspan x="777.8" y="384" fill="#FFFFFF" font-family="'OpenSans'" font-size="40">culpa</tspan><tspan x="878.3" y="384" fill="#FFFFFF" font-family="'OpenSans'" font-size="40" letter-spacing="2"> </tspan><tspan x="891.5" y="384" fill="#FFFFFF" font-family="'OpenSans'" font-size="40">qui</tspan><tspan x="950.7" y="384" fill="#FFFFFF" font-family="'OpenSans'" font-size="40" letter-spacing="2"> </tspan><tspan x="963.9" y="384" fill="#FFFFFF" font-family="'OpenSans'" font-size="40">officia </tspan><tspan x="0" y="432" fill="#FFFFFF" font-family="'OpenSans'" font-size="40">deserunt mollit anim id est laborum</tspan></text>
</g>
<g>
	<text transform="matrix(1 0 0 1 188.8197 2902.2014)" fill="#DFDDBE" font-family="'Oswald-Bold'" font-size="50">últimos diseÑos</text>
</g>
<g>
	<g>
		<rect x="-910.2" y="488" fill="#ADACB2" width="2560" height="1020.2"/>
		<line fill="none" stroke="#211915" stroke-miterlimit="10" x1="-910.2" y1="488" x2="1649.8" y2="1508.2"/>
		<line fill="none" stroke="#211915" stroke-miterlimit="10" x1="-910.2" y1="1508.2" x2="1649.8" y2="488"/>
	</g>
	<g opacity="0.5">
		<circle fill="#FFFFFF" cx="293.1" cy="1433.7" r="16"/>
		<circle fill="#FFFFFF" cx="369.8" cy="1433.7" r="16"/>
		<circle fill="#FFFFFF" cx="446.4" cy="1433.7" r="16"/>
	</g>
</g>
<text transform="matrix(1 0 0 1 854.6 4299.374)"><tspan x="0" y="0" fill="#FFFFFF" font-family="'Oswald-Bold'" font-size="144.8637">recibí las</tspan><tspan x="-585.5" y="173.8" fill="#FFFFFF" font-family="'Oswald-Bold'" font-size="144.8637">últimas novedades</tspan></text>
<line fill="none" stroke="#FFFFFF" stroke-miterlimit="10" x1="1513" y1="4643.4" x2="301.7" y2="4643.4"/>
<text transform="matrix(1 0 0 1 301.693 4607.3638)" fill="#868589" font-family="'Univers-Light'" font-size="40">Ingresa tu email aca</text>
<rect x="-905.5" y="4950.1" fill="#18293D" width="2558.9" height="159.7"/>
<g id="OLaMTo_1_">
	<g>
		<g>
			<path fill="#FFFFFF" d="M1448.6,4584.8c0.3-1,1.1-1.3,2.1-1.3c11.5,0,23,0,34.5,0c0.9,0,0.9,0,0.9-0.8c0-3.2,0-6.3,0-9.5
				c0-0.6,0-1.2,0.2-1.8c0.3-0.7,0.8-0.9,1.5-0.6c0.3,0.1,0.6,0.3,0.9,0.5c7.1,5.5,14.2,10.9,21.4,16.4c1.6,1.2,3.2,2.5,4.7,3.8
				c1.5,1.3,1.5,2.7-0.1,4c-8,6.7-16.1,13.3-24.1,20c-0.6,0.5-1.2,1.1-1.9,1.5c-1.1,0.6-1.6,0.3-1.8-0.9c0-0.4,0-0.8,0-1.2
				c0-3.4,0-6.8,0-10.2c0-0.6-0.2-0.6-0.7-0.6c-11.7,0-23.4,0-35.1,0c-1.1,0-1.9-0.2-2.3-1.3
				C1448.6,4596.8,1448.6,4590.8,1448.6,4584.8z"/>
		</g>
	</g>
</g>
<g>
	<text transform="matrix(1 0 0 1 -779.4736 5046.8599)" fill="#DFDDBE" font-family="'Impact'" font-size="32">© 2022 RICHICONCEPTS, todos los derechos reservados.</text>
</g>
<g>
	<path fill="#5F827A" d="M1467.9,5034.9c-0.8-0.3-1.6-0.6-2.3-1c-4.1-2-6.3-5.4-6.9-9.8c-0.2-1.1,0.1-1.4,1.2-0.8
		c1.2,0.6,2.5,0.7,4.3,1c-5.8-4.7-6.5-10.2-4-16.4c0.7,0,0.9,0.6,1.2,0.9c6.1,7,13.9,10.9,23.1,11.8c1.4,0.1,1.6-0.4,1.5-1.6
		c-0.9-8.7,6.7-14.2,13.1-13.7c2.9,0.2,5.4,1.3,7.6,3.3c0.6,0.5,1.1,0.7,1.9,0.5c2.2-0.6,4.3-1.4,6.7-2.7c-0.9,2.8-2.6,4.7-4.9,6.6
		c2.5-0.2,4.3-0.9,6.5-1.6c-1.5,2.3-3.1,4.1-5.1,5.5c-0.7,0.6-1,1.1-1,2c0,14.9-8.6,28.1-22.5,33.5c-10.7,4.2-21.1,2.9-31.1-2.7
		c-0.1,0-0.1-0.2-0.3-0.4c6.4,0.2,12.3-1.2,17.6-5.3c-5.2-0.4-8.7-2.8-10.9-7.2c-0.2-0.4-0.6-0.9-0.4-1.3c0.3-0.5,0.8-0.1,1.3-0.1
		C1465.6,5035.5,1466.7,5035.3,1467.9,5034.9z"/>
	<g>
		<path fill="#5F827A" d="M1405.6,5031.9c-0.1,3.6,0.1,8.1-0.1,12.6c-0.2,3.4-1.4,6.3-3.4,8.9c-3.7,5-8.8,6.9-14.8,6.9
			c-8.1,0-16.2,0-24.4,0c-8.5,0-14.5-6.6-16.1-13.6c-0.5-2-0.5-3.9-0.5-5.9c0-7.9,0-15.7,0-23.6c0-9.7,7.2-17.4,16.9-17.6
			c8.8-0.2,17.7-0.1,26.5,0c7.1,0.1,13.9,6.2,15.5,13.5c0.3,1.5,0.4,3.1,0.4,4.6C1405.6,5022.2,1405.6,5026.6,1405.6,5031.9z
			 M1401,5030.1C1401,5030.1,1401,5030.1,1401,5030.1c0-4.6,0.1-9.2,0-13.8c-0.2-6.1-5.3-11.9-11.7-12.1c-8.6-0.3-17.1-0.1-25.7-0.1
			c-6.6,0-12.4,5.7-12.6,12.2c-0.2,4.4,0,8.8-0.1,13.2c0,5-0.3,10,0.2,15c0.6,6,5.4,10.9,11.4,11.2c8.9,0.5,17.9,0.4,26.9,0.1
			c6-0.2,11.5-5.9,11.5-12.1C1401,5039.1,1401,5034.6,1401,5030.1z"/>
		<path fill="#5F827A" d="M1392.2,5029.3c-0.1,9.8-7,16.8-16.6,16.7c-8.8-0.1-15.7-7.3-15.7-16.4c0-8.8,7.3-16.2,16.1-16.1
			C1386.2,5013.7,1392.1,5020.4,1392.2,5029.3z M1376.6,5019.2c-6.1-0.5-10.7,4.1-11.2,9.7c-0.5,5.6,4.2,11.1,9.8,11.5
			c6.8,0.5,11-5.1,11.5-9.6C1387.2,5024,1383.2,5019.5,1376.6,5019.2z"/>
		<path fill="#5F827A" d="M1396.1,5013.2c0.3,2-1.6,3.7-3.5,3.7c-2.2,0-3.9-1.6-3.9-3.7c0-2.1,1.6-3.7,3.8-3.7
			C1394.8,5009.5,1396.1,5010.9,1396.1,5013.2z"/>
	</g>
</g>
<g>
	<g>
		<rect x="-779.5" y="2974.1" fill="#C2C3C8" width="728.4" height="927.5"/>
	</g>
	<g>
		
			<line fill="none" stroke="#211915" stroke-width="1.2342" stroke-miterlimit="10" x1="-779.5" y1="2974.1" x2="-51.1" y2="3901.6"/>
		
			<line fill="none" stroke="#211915" stroke-width="1.2342" stroke-miterlimit="10" x1="-779.5" y1="3901.6" x2="-51.1" y2="2974.1"/>
	</g>
</g>
<g>
	<g>
		<rect x="5.6" y="2974.1" fill="#C2C3C8" width="728.4" height="927.5"/>
	</g>
	<g>
		<line fill="none" stroke="#211915" stroke-width="1.2342" stroke-miterlimit="10" x1="5.6" y1="2974.1" x2="734" y2="3901.6"/>
		<line fill="none" stroke="#211915" stroke-width="1.2342" stroke-miterlimit="10" x1="5.6" y1="3901.6" x2="734" y2="2974.1"/>
	</g>
</g>
<g>
	<g>
		<rect x="784.7" y="2974.1" fill="#C2C3C8" width="728.4" height="927.5"/>
	</g>
	<g>
		<line fill="none" stroke="#211915" stroke-width="1.2342" stroke-miterlimit="10" x1="784.7" y1="2974.1" x2="1513" y2="3901.6"/>
		<line fill="none" stroke="#211915" stroke-width="1.2342" stroke-miterlimit="10" x1="784.7" y1="3901.6" x2="1513" y2="2974.1"/>
	</g>
</g>
<g>
	<g>
		<path fill="#DFDDBE" d="M2072.8,2598.5c3.2,0,3.2-5,0-5S2069.6,2598.5,2072.8,2598.5L2072.8,2598.5z"/>
	</g>
</g>
<g>
	<g>
		<path fill="#18293D" d="M1984.8,2766.5c3.2,0,3.2-5,0-5S1981.6,2766.5,1984.8,2766.5L1984.8,2766.5z"/>
	</g>
</g>
<g>
	<g>
		<path fill="#6AAB92" d="M2632.8,4070.5c3.2,0,3.2-5,0-5S2629.6,4070.5,2632.8,4070.5L2632.8,4070.5z"/>
	</g>
</g>
<g>
	<path fill="#DFDDBE" d="M2.8,11h1.7c1.2,0,2,0,2.4,0.1s0.7,0.3,1,0.7s0.4,1,0.4,1.8c0,0.7-0.1,1.2-0.3,1.5S7.5,15.4,7,15.5
		c0.5,0.1,0.8,0.3,1,0.5s0.3,0.4,0.3,0.6s0.1,0.6,0.1,1.4v2.5H6.1v-3.2c0-0.5,0-0.8-0.1-0.9s-0.3-0.2-0.6-0.2v4.3H2.8V11z M5.3,12.6
		v2.1c0.3,0,0.5,0,0.6-0.1s0.2-0.3,0.2-0.7v-0.5c0-0.3-0.1-0.5-0.2-0.6S5.6,12.6,5.3,12.6z"/>
	<path fill="#DFDDBE" d="M11.8,11v9.5H9.3V11H11.8z"/>
	<path fill="#DFDDBE" d="M18.5,15.1h-2.5v-1.6c0-0.5,0-0.8-0.1-0.9c-0.1-0.1-0.2-0.2-0.3-0.2c-0.2,0-0.3,0.1-0.4,0.2
		s-0.1,0.5-0.1,0.9v4.4c0,0.5,0,0.8,0.1,0.9s0.2,0.2,0.4,0.2c0.2,0,0.3-0.1,0.4-0.2s0.1-0.5,0.1-1v-1.2h2.5V17c0,1-0.1,1.7-0.2,2.1
		c-0.1,0.4-0.4,0.8-0.9,1.1s-1.1,0.5-1.8,0.5c-0.7,0-1.3-0.1-1.8-0.4s-0.8-0.6-0.9-1.1s-0.2-1.2-0.2-2.1v-2.8c0-0.7,0-1.2,0.1-1.5
		s0.2-0.7,0.4-1s0.6-0.6,1-0.7s0.9-0.3,1.4-0.3c0.7,0,1.3,0.1,1.8,0.4s0.8,0.6,0.9,1.1s0.2,1.1,0.2,2V15.1z"/>
	<path fill="#DFDDBE" d="M25.1,11v9.5h-2.5v-4h-0.7v4h-2.5V11h2.5v3.4h0.7V11H25.1z"/>
	<path fill="#DFDDBE" d="M28.5,11v9.5h-2.5V11H28.5z"/>
</g>
</svg>
