<?xml version="1.0" encoding="utf-8"?>
<!-- Generator: Adobe Illustrator 17.1.0, SVG Export Plug-In . SVG Version: 6.00 Build 0)  -->
<!DOCTYPE svg PUBLIC "-//W3C//DTD SVG 1.1//EN" "http://www.w3.org/Graphics/SVG/1.1/DTD/svg11.dtd">
<svg version="1.1" id="Capa_1" xmlns="http://www.w3.org/2000/svg" xmlns:xlink="http://www.w3.org/1999/xlink" x="0px" y="0px"
	 viewBox="0 0 16 16" enable-background="new 0 0 16 16" xml:space="preserve">
<rect x="0" y="0" fill="#18293D" width="16" height="16"/>
<g>
	<g>
		<path fill="#DFDDBE" d="M2.7,6.1L2.7,6.8c0.2-0.4,0.5-0.7,0.9-0.7v1.6c-0.3,0-0.5,0-0.6,0.1C2.9,7.9,2.8,8,2.8,8.1
			c0,0.1,0,0.4,0,0.9v1.8H1.3V6.1H2.7z"/>
		<path fill="#DFDDBE" d="M5.4,5.1v0.7H3.9V5.1H5.4z M5.4,6.1v4.7H3.9V6.1H5.4z"/>
		<path fill="#DFDDBE" d="M9,7.9H7.7V7.4c0-0.2,0-0.3,0-0.4c0-0.1-0.1-0.1-0.2-0.1c-0.1,0-0.1,0-0.2,0.1c0,0.1,0,0.2,0,0.4v2.2
			c0,0.2,0,0.3,0.1,0.4c0,0.1,0.1,0.1,0.2,0.1c0.1,0,0.2,0,0.2-0.1c0-0.1,0.1-0.3,0.1-0.5V8.9H9c0,0.4,0,0.7,0,0.8
			c0,0.2-0.1,0.4-0.2,0.6c-0.1,0.2-0.3,0.3-0.5,0.4c-0.2,0.1-0.5,0.1-0.8,0.1c-0.4,0-0.7-0.1-1-0.2c-0.2-0.1-0.4-0.3-0.5-0.6
			C5.9,9.9,5.8,9.5,5.8,9.1V7.7c0-0.4,0-0.7,0.1-0.9C6,6.6,6.2,6.4,6.5,6.3c0.3-0.2,0.6-0.2,1-0.2c0.4,0,0.7,0.1,1,0.2
			c0.3,0.2,0.4,0.4,0.5,0.6C9,7.1,9,7.5,9,7.9z"/>
		<path fill="#DFDDBE" d="M10.9,5.1v1.3c0.1-0.1,0.3-0.2,0.4-0.3c0.1-0.1,0.3-0.1,0.5-0.1c0.2,0,0.5,0.1,0.6,0.2
			c0.2,0.1,0.3,0.3,0.3,0.4c0,0.2,0.1,0.5,0.1,0.9v3.2h-1.4V7.5c0-0.3,0-0.4,0-0.5c0-0.1-0.1-0.1-0.2-0.1c-0.1,0-0.1,0-0.2,0.1
			c0,0.1,0,0.2,0,0.5v3.3H9.4V5.1H10.9z"/>
		<path fill="#DFDDBE" d="M14.7,5.1v0.7h-1.5V5.1H14.7z M14.7,6.1v4.7h-1.5V6.1H14.7z"/>
	</g>
</g>
</svg>
