<?xml version="1.0" encoding="utf-8"?>
<!-- Generator: Adobe Illustrator 17.1.0, SVG Export Plug-In . SVG Version: 6.00 Build 0)  -->
<!DOCTYPE svg PUBLIC "-//W3C//DTD SVG 1.1//EN" "http://www.w3.org/Graphics/SVG/1.1/DTD/svg11.dtd">
<svg version="1.1" id="Capa_1" xmlns="http://www.w3.org/2000/svg" xmlns:xlink="http://www.w3.org/1999/xlink" x="0px" y="0px"
	 viewBox="0 0 44.5 29.4" enable-background="new 0 0 44.5 29.4" xml:space="preserve">
<rect x="-958.3" y="4217.3" fill="#5F827A" width="2560" height="932"/>
<rect x="-959.4" y="2956.3" fill="#18293D" width="2560" height="1261.1"/>
<rect x="-701.6" y="-449.7" fill="#DFDDBE" width="2560" height="176"/>
<g>
	<defs>
		<rect id="SVGID_1_" x="-959.4" y="351" width="2560" height="161"/>
	</defs>
	<clipPath id="SVGID_2_">
		<use xlink:href="#SVGID_1_"  overflow="visible"/>
	</clipPath>
	<g clip-path="url(#SVGID_2_)">
		
			<image overflow="visible" width="2784" height="1778" xlink:href="951B2B2DB50538E5.png"  transform="matrix(0.9992 0 0 0.9992 -1073.0665 277.0097)">
		</image>
	</g>
</g>
<g>
	<text transform="matrix(1 0 0 1 -827.556 616.4865)" fill="#DFDDBE" font-family="'Impact'" font-size="62.083">richi concepts</text>
</g>
<g>
	<rect x="513.9" y="387.1" fill="#2B2523" width="31.4" height="31.4"/>
	<g>
		<g>
			<g>
				<path fill="#FFFFFF" d="M519.2,401.7h1.8v0.8c0.2-0.3,0.4-0.5,0.7-0.7c0.3-0.2,0.6-0.2,1-0.2c0,0,0.1,0,0.2,0c0.1,0,0.1,0,0.2,0
					v1.7c-0.2-0.1-0.5-0.2-0.8-0.2c-0.4,0-0.7,0.1-0.9,0.4c-0.2,0.2-0.3,0.6-0.3,1.1v2.1h-1.8V401.7z"/>
				<path fill="#FFFFFF" d="M523.6,399.8c0-0.1,0-0.3,0.1-0.4c0.1-0.1,0.1-0.2,0.2-0.3c0.1-0.1,0.2-0.2,0.3-0.2
					c0.1-0.1,0.2-0.1,0.4-0.1s0.3,0,0.4,0.1c0.1,0.1,0.2,0.1,0.3,0.2c0.1,0.1,0.2,0.2,0.2,0.3c0.1,0.1,0.1,0.2,0.1,0.4
					s0,0.3-0.1,0.4c-0.1,0.1-0.1,0.2-0.2,0.3c-0.1,0.1-0.2,0.2-0.3,0.2c-0.1,0.1-0.2,0.1-0.4,0.1s-0.3,0-0.4-0.1
					c-0.1-0.1-0.2-0.1-0.3-0.2c-0.1-0.1-0.2-0.2-0.2-0.3C523.6,400.1,523.6,400,523.6,399.8z M525.5,401.7v5h-1.8v-5H525.5z"/>
				<path fill="#FFFFFF" d="M530.4,403.3c-0.3-0.2-0.6-0.3-0.9-0.3c-0.2,0-0.3,0-0.5,0.1c-0.1,0.1-0.3,0.1-0.4,0.2
					c-0.1,0.1-0.2,0.2-0.3,0.4c-0.1,0.1-0.1,0.3-0.1,0.5c0,0.2,0,0.3,0.1,0.5c0.1,0.1,0.1,0.3,0.3,0.4c0.1,0.1,0.2,0.2,0.4,0.2
					c0.1,0.1,0.3,0.1,0.5,0.1c0.3,0,0.6-0.1,0.9-0.3v1.5c-0.4,0.2-0.8,0.3-1.2,0.3c-0.4,0-0.7-0.1-1-0.2c-0.3-0.1-0.6-0.3-0.9-0.5
					c-0.2-0.2-0.4-0.5-0.6-0.8c-0.1-0.3-0.2-0.7-0.2-1.1c0-0.4,0.1-0.8,0.2-1.1c0.1-0.3,0.3-0.6,0.6-0.8c0.2-0.2,0.5-0.4,0.9-0.6
					c0.3-0.1,0.7-0.2,1.1-0.2c0.4,0,0.8,0.1,1.2,0.3V403.3z"/>
				<path fill="#FFFFFF" d="M531.7,398.7h1.8v3.7c0.2-0.3,0.5-0.5,0.7-0.6c0.2-0.1,0.5-0.2,0.9-0.2c0.6,0,1.1,0.2,1.4,0.5
					c0.3,0.3,0.5,0.8,0.5,1.4v3.2h-1.8v-2.5c0-0.3,0-0.5-0.1-0.6c0-0.2-0.1-0.3-0.2-0.4c-0.2-0.1-0.3-0.2-0.6-0.2
					c-0.3,0-0.5,0.1-0.7,0.3c-0.2,0.2-0.2,0.4-0.2,0.8v2.7h-1.8V398.7z"/>
				<path fill="#FFFFFF" d="M538,399.8c0-0.1,0-0.3,0.1-0.4c0.1-0.1,0.1-0.2,0.2-0.3c0.1-0.1,0.2-0.2,0.3-0.2
					c0.1-0.1,0.2-0.1,0.4-0.1s0.3,0,0.4,0.1c0.1,0.1,0.2,0.1,0.3,0.2c0.1,0.1,0.2,0.2,0.2,0.3c0.1,0.1,0.1,0.2,0.1,0.4
					s0,0.3-0.1,0.4c-0.1,0.1-0.1,0.2-0.2,0.3c-0.1,0.1-0.2,0.2-0.3,0.2c-0.1,0.1-0.2,0.1-0.4,0.1s-0.3,0-0.4-0.1
					c-0.1-0.1-0.2-0.1-0.3-0.2c-0.1-0.1-0.2-0.2-0.2-0.3C538,400.1,538,400,538,399.8z M539.9,401.7v5h-1.8v-5H539.9z"/>
			</g>
		</g>
	</g>
</g>
<text transform="matrix(1 0 0 1 596.9435 609.3269)" fill="#FFFFFF" font-family="'Oswald-Bold'" font-size="32">Inicio</text>
<text transform="matrix(1 0 0 1 739.0073 613.8433)" fill="#DFDDBE" font-family="'Oswald-Light'" font-size="32">Diseños</text>
<text transform="matrix(1 0 0 1 904.1315 613.8433)" fill="#DFDDBE" font-family="'Oswald-Light'" font-size="32">Quién soy?</text>
<text transform="matrix(1 0 0 1 1115.0233 613.8433)" fill="#DFDDBE" font-family="'Oswald-Light'" font-size="32">FAQs</text>
<text transform="matrix(1 0 0 1 1237.9535 613.8433)" fill="#DFDDBE" font-family="'Oswald-Light'" font-size="32">Contact</text>
<g>
	<g>
		<g>
			<path fill="#6AAB92" d="M1436.9,611.8c-10.8,0-19.5-8.8-19.5-19.5c0-10.8,8.8-19.5,19.5-19.5s19.5,8.8,19.5,19.5
				C1456.5,603.1,1447.7,611.8,1436.9,611.8z M1436.9,577.8c-8,0-14.5,6.5-14.5,14.5s6.5,14.5,14.5,14.5s14.5-6.5,14.5-14.5
				S1444.9,577.8,1436.9,577.8z"/>
		</g>
		<g>
			<path fill="#6AAB92" d="M1464.8,624.8c-0.6,0-1.3-0.2-1.8-0.7L1447,608c-1-1-1-2.6,0-3.5c1-1,2.6-1,3.5,0l16.1,16.1
				c1,1,1,2.6,0,3.5C1466.1,624.6,1465.5,624.8,1464.8,624.8z"/>
		</g>
	</g>
</g>
<g>
	<g>
		<g>
			<path fill="#6AAB92" d="M527.3,63.3c-10.8,0-19.5-8.8-19.5-19.5c0-10.8,8.8-19.5,19.5-19.5s19.5,8.8,19.5,19.5
				C546.8,54.5,538.1,63.3,527.3,63.3z M527.3,29.2c-8,0-14.5,6.5-14.5,14.5s6.5,14.5,14.5,14.5s14.5-6.5,14.5-14.5
				S535.3,29.2,527.3,29.2z"/>
		</g>
		<g>
			<path fill="#6AAB92" d="M555.2,76.3c-0.6,0-1.3-0.2-1.8-0.7l-16.1-16.1c-1-1-1-2.6,0-3.5c1-1,2.6-1,3.5,0L557,72c1,1,1,2.6,0,3.5
				C556.5,76,555.9,76.3,555.2,76.3z"/>
		</g>
	</g>
</g>
<line fill="none" stroke="#6AAB92" stroke-width="4.9419" stroke-miterlimit="10" x1="597.8" y1="625" x2="679.7" y2="625"/>
<rect x="-958.3" y="1708.2" fill="#18293D" width="2560" height="1248.1"/>
<text transform="matrix(1 0 0 1 -824.2684 2096.6057)"><tspan x="0" y="0" fill="#DFDDBE" font-family="'Oswald-Bold'" font-size="155.6688">CÓmo surgiÓ</tspan><tspan x="0" y="186.8" fill="#DFDDBE" font-family="'Oswald-Bold'" font-size="155.6688">Richi Concepts?</tspan></text>
<g>
	<rect x="392.8" y="1919.5" fill="none" width="1076.7" height="546.1"/>
	<text transform="matrix(1 0 0 1 392.8353 1949.8502)"><tspan x="0" y="0" fill="#FFFFFF" font-family="'OpenSans'" font-size="40">Lorem</tspan><tspan x="120.9" y="0" fill="#FFFFFF" font-family="'OpenSans'" font-size="40" letter-spacing="6"> </tspan><tspan x="137.9" y="0" fill="#FFFFFF" font-family="'OpenSans'" font-size="40">ipsum</tspan><tspan x="253.4" y="0" fill="#FFFFFF" font-family="'OpenSans'" font-size="40" letter-spacing="6"> </tspan><tspan x="270.4" y="0" fill="#FFFFFF" font-family="'OpenSans'" font-size="40">dolor</tspan><tspan x="369.7" y="0" fill="#FFFFFF" font-family="'OpenSans'" font-size="40" letter-spacing="6"> </tspan><tspan x="386.7" y="0" fill="#FFFFFF" font-family="'OpenSans'" font-size="40">sit</tspan><tspan x="430.1" y="0" fill="#FFFFFF" font-family="'OpenSans'" font-size="40" letter-spacing="6"> </tspan><tspan x="447.1" y="0" fill="#FFFFFF" font-family="'OpenSans'" font-size="40">amet,</tspan><tspan x="552.9" y="0" fill="#FFFFFF" font-family="'OpenSans'" font-size="40" letter-spacing="6"> </tspan><tspan x="569.9" y="0" fill="#FFFFFF" font-family="'OpenSans'" font-size="40">consectetur</tspan><tspan x="789.8" y="0" fill="#FFFFFF" font-family="'OpenSans'" font-size="40" letter-spacing="6"> </tspan><tspan x="806.9" y="0" fill="#FFFFFF" font-family="'OpenSans'" font-size="40">adipiscing</tspan><tspan x="993.1" y="0" fill="#FFFFFF" font-family="'OpenSans'" font-size="40" letter-spacing="6"> </tspan><tspan x="1010.1" y="0" fill="#FFFFFF" font-family="'OpenSans'" font-size="40">elit, </tspan><tspan x="0" y="48" fill="#FFFFFF" font-family="'OpenSans'" font-size="40">sed</tspan><tspan x="66" y="48" fill="#FFFFFF" font-family="'OpenSans'" font-size="40" letter-spacing="9"> </tspan><tspan x="85.8" y="48" fill="#FFFFFF" font-family="'OpenSans'" font-size="40">do</tspan><tspan x="134.5" y="48" fill="#FFFFFF" font-family="'OpenSans'" font-size="40" letter-spacing="9"> </tspan><tspan x="154.3" y="48" fill="#FFFFFF" font-family="'OpenSans'" font-size="40">eiusmod</tspan><tspan x="316.3" y="48" fill="#FFFFFF" font-family="'OpenSans'" font-size="40" letter-spacing="9"> </tspan><tspan x="336.1" y="48" fill="#FFFFFF" font-family="'OpenSans'" font-size="40">tempor</tspan><tspan x="474.9" y="48" fill="#FFFFFF" font-family="'OpenSans'" font-size="40" letter-spacing="9"> </tspan><tspan x="494.7" y="48" fill="#FFFFFF" font-family="'OpenSans'" font-size="40">incididunt</tspan><tspan x="680.8" y="48" fill="#FFFFFF" font-family="'OpenSans'" font-size="40" letter-spacing="9"> </tspan><tspan x="700.6" y="48" fill="#FFFFFF" font-family="'OpenSans'" font-size="40">ut</tspan><tspan x="739.3" y="48" fill="#FFFFFF" font-family="'OpenSans'" font-size="40" letter-spacing="9"> </tspan><tspan x="759.1" y="48" fill="#FFFFFF" font-family="'OpenSans'" font-size="40">labore</tspan><tspan x="878.9" y="48" fill="#FFFFFF" font-family="'OpenSans'" font-size="40" letter-spacing="9"> </tspan><tspan x="898.7" y="48" fill="#FFFFFF" font-family="'OpenSans'" font-size="40">et</tspan><tspan x="935.2" y="48" fill="#FFFFFF" font-family="'OpenSans'" font-size="40" letter-spacing="9"> </tspan><tspan x="955" y="48" fill="#FFFFFF" font-family="'OpenSans'" font-size="40">dolore </tspan><tspan x="0" y="96" fill="#FFFFFF" font-family="'OpenSans'" font-size="40">magna</tspan><tspan x="128.2" y="96" fill="#FFFFFF" font-family="'OpenSans'" font-size="40" letter-spacing="8"> </tspan><tspan x="146.7" y="96" fill="#FFFFFF" font-family="'OpenSans'" font-size="40">aliqua.</tspan><tspan x="271.2" y="96" fill="#FFFFFF" font-family="'OpenSans'" font-size="40" letter-spacing="8"> </tspan><tspan x="289.8" y="96" fill="#FFFFFF" font-family="'OpenSans'" font-size="40">Ut</tspan><tspan x="333" y="96" fill="#FFFFFF" font-family="'OpenSans'" font-size="40" letter-spacing="8"> </tspan><tspan x="351.6" y="96" fill="#FFFFFF" font-family="'OpenSans'" font-size="40">enim</tspan><tspan x="445.9" y="96" fill="#FFFFFF" font-family="'OpenSans'" font-size="40" letter-spacing="8"> </tspan><tspan x="464.5" y="96" fill="#FFFFFF" font-family="'OpenSans'" font-size="40">ad</tspan><tspan x="511.2" y="96" fill="#FFFFFF" font-family="'OpenSans'" font-size="40" letter-spacing="8"> </tspan><tspan x="529.8" y="96" fill="#FFFFFF" font-family="'OpenSans'" font-size="40">minim</tspan><tspan x="649" y="96" fill="#FFFFFF" font-family="'OpenSans'" font-size="40" letter-spacing="8"> </tspan><tspan x="667.6" y="96" fill="#FFFFFF" font-family="'OpenSans'" font-size="40">veniam,</tspan><tspan x="814" y="96" fill="#FFFFFF" font-family="'OpenSans'" font-size="40" letter-spacing="8"> </tspan><tspan x="832.6" y="96" fill="#FFFFFF" font-family="'OpenSans'" font-size="40">quis</tspan><tspan x="910.8" y="96" fill="#FFFFFF" font-family="'OpenSans'" font-size="40" letter-spacing="8"> </tspan><tspan x="929.4" y="96" fill="#FFFFFF" font-family="'OpenSans'" font-size="40">nostrud </tspan><tspan x="0" y="144" fill="#FFFFFF" font-family="'OpenSans'" font-size="40">exercitation</tspan><tspan x="220.6" y="144" fill="#FFFFFF" font-family="'OpenSans'" font-size="40" letter-spacing="-1"> </tspan><tspan x="230" y="144" fill="#FFFFFF" font-family="'OpenSans'" font-size="40">ullamco</tspan><tspan x="377.4" y="144" fill="#FFFFFF" font-family="'OpenSans'" font-size="40" letter-spacing="-1"> </tspan><tspan x="386.8" y="144" fill="#FFFFFF" font-family="'OpenSans'" font-size="40">laboris</tspan><tspan x="513.4" y="144" fill="#FFFFFF" font-family="'OpenSans'" font-size="40" letter-spacing="-1"> </tspan><tspan x="522.7" y="144" fill="#FFFFFF" font-family="'OpenSans'" font-size="40">nisi</tspan><tspan x="586.6" y="144" fill="#FFFFFF" font-family="'OpenSans'" font-size="40" letter-spacing="-1"> </tspan><tspan x="595.9" y="144" fill="#FFFFFF" font-family="'OpenSans'" font-size="40">ut</tspan><tspan x="634.6" y="144" fill="#FFFFFF" font-family="'OpenSans'" font-size="40" letter-spacing="-1"> </tspan><tspan x="643.9" y="144" fill="#FFFFFF" font-family="'OpenSans'" font-size="40">aliquip</tspan><tspan x="770.1" y="144" fill="#FFFFFF" font-family="'OpenSans'" font-size="40" letter-spacing="-1"> </tspan><tspan x="779.5" y="144" fill="#FFFFFF" font-family="'OpenSans'" font-size="40">ex</tspan><tspan x="822.9" y="144" fill="#FFFFFF" font-family="'OpenSans'" font-size="40" letter-spacing="-1"> </tspan><tspan x="832.2" y="144" fill="#FFFFFF" font-family="'OpenSans'" font-size="40">ea</tspan><tspan x="876.9" y="144" fill="#FFFFFF" font-family="'OpenSans'" font-size="40" letter-spacing="-1"> </tspan><tspan x="886.3" y="144" fill="#FFFFFF" font-family="'OpenSans'" font-size="40">commodo </tspan><tspan x="0" y="192" fill="#FFFFFF" font-family="'OpenSans'" font-size="40">consequat. </tspan><tspan x="0" y="288" fill="#FFFFFF" font-family="'OpenSans'" font-size="40">Duis</tspan><tspan x="82.9" y="288" fill="#FFFFFF" font-family="'OpenSans'" font-size="40" letter-spacing="6"> </tspan><tspan x="100.1" y="288" fill="#FFFFFF" font-family="'OpenSans'" font-size="40">aute</tspan><tspan x="183.5" y="288" fill="#FFFFFF" font-family="'OpenSans'" font-size="40" letter-spacing="6"> </tspan><tspan x="200.7" y="288" fill="#FFFFFF" font-family="'OpenSans'" font-size="40">irure</tspan><tspan x="290.5" y="288" fill="#FFFFFF" font-family="'OpenSans'" font-size="40" letter-spacing="6"> </tspan><tspan x="307.7" y="288" fill="#FFFFFF" font-family="'OpenSans'" font-size="40">dolor</tspan><tspan x="407" y="288" fill="#FFFFFF" font-family="'OpenSans'" font-size="40" letter-spacing="6"> </tspan><tspan x="424.2" y="288" fill="#FFFFFF" font-family="'OpenSans'" font-size="40">in</tspan><tspan x="458.9" y="288" fill="#FFFFFF" font-family="'OpenSans'" font-size="40" letter-spacing="6"> </tspan><tspan x="476.1" y="288" fill="#FFFFFF" font-family="'OpenSans'" font-size="40">reprehenderit</tspan><tspan x="737.2" y="288" fill="#FFFFFF" font-family="'OpenSans'" font-size="40" letter-spacing="6"> </tspan><tspan x="754.4" y="288" fill="#FFFFFF" font-family="'OpenSans'" font-size="40">in</tspan><tspan x="789.1" y="288" fill="#FFFFFF" font-family="'OpenSans'" font-size="40" letter-spacing="6"> </tspan><tspan x="806.3" y="288" fill="#FFFFFF" font-family="'OpenSans'" font-size="40">voluptate</tspan><tspan x="982.6" y="288" fill="#FFFFFF" font-family="'OpenSans'" font-size="40" letter-spacing="6"> </tspan><tspan x="999.9" y="288" fill="#FFFFFF" font-family="'OpenSans'" font-size="40">velit </tspan><tspan x="0" y="336" fill="#FFFFFF" font-family="'OpenSans'" font-size="40">esse</tspan><tspan x="83" y="336" fill="#FFFFFF" font-family="'OpenSans'" font-size="40" letter-spacing="2"> </tspan><tspan x="95.6" y="336" fill="#FFFFFF" font-family="'OpenSans'" font-size="40">cillum</tspan><tspan x="206.7" y="336" fill="#FFFFFF" font-family="'OpenSans'" font-size="40" letter-spacing="2"> </tspan><tspan x="219.2" y="336" fill="#FFFFFF" font-family="'OpenSans'" font-size="40">dolore</tspan><tspan x="340.9" y="336" fill="#FFFFFF" font-family="'OpenSans'" font-size="40" letter-spacing="2"> </tspan><tspan x="353.5" y="336" fill="#FFFFFF" font-family="'OpenSans'" font-size="40">eu</tspan><tspan x="400.5" y="336" fill="#FFFFFF" font-family="'OpenSans'" font-size="40" letter-spacing="2"> </tspan><tspan x="413" y="336" fill="#FFFFFF" font-family="'OpenSans'" font-size="40">fugiat</tspan><tspan x="519.5" y="336" fill="#FFFFFF" font-family="'OpenSans'" font-size="40" letter-spacing="2"> </tspan><tspan x="532" y="336" fill="#FFFFFF" font-family="'OpenSans'" font-size="40">nulla</tspan><tspan x="623.6" y="336" fill="#FFFFFF" font-family="'OpenSans'" font-size="40" letter-spacing="2"> </tspan><tspan x="636.1" y="336" fill="#FFFFFF" font-family="'OpenSans'" font-size="40">pariatur.</tspan><tspan x="797.2" y="336" fill="#FFFFFF" font-family="'OpenSans'" font-size="40" letter-spacing="2"> </tspan><tspan x="809.7" y="336" fill="#FFFFFF" font-family="'OpenSans'" font-size="40">Excepteur</tspan><tspan x="996.3" y="336" fill="#FFFFFF" font-family="'OpenSans'" font-size="40" letter-spacing="2"> </tspan><tspan x="1008.8" y="336" fill="#FFFFFF" font-family="'OpenSans'" font-size="40">sint </tspan><tspan x="0" y="384" fill="#FFFFFF" font-family="'OpenSans'" font-size="40">occaecat</tspan><tspan x="162.3" y="384" fill="#FFFFFF" font-family="'OpenSans'" font-size="40" letter-spacing="2"> </tspan><tspan x="175.5" y="384" fill="#FFFFFF" font-family="'OpenSans'" font-size="40">cupidatat</tspan><tspan x="351" y="384" fill="#FFFFFF" font-family="'OpenSans'" font-size="40" letter-spacing="2"> </tspan><tspan x="364.2" y="384" fill="#FFFFFF" font-family="'OpenSans'" font-size="40">non</tspan><tspan x="437.5" y="384" fill="#FFFFFF" font-family="'OpenSans'" font-size="40" letter-spacing="2"> </tspan><tspan x="450.7" y="384" fill="#FFFFFF" font-family="'OpenSans'" font-size="40">proident,</tspan><tspan x="621.2" y="384" fill="#FFFFFF" font-family="'OpenSans'" font-size="40" letter-spacing="2"> </tspan><tspan x="634.4" y="384" fill="#FFFFFF" font-family="'OpenSans'" font-size="40">sunt</tspan><tspan x="716.7" y="384" fill="#FFFFFF" font-family="'OpenSans'" font-size="40" letter-spacing="2"> </tspan><tspan x="729.9" y="384" fill="#FFFFFF" font-family="'OpenSans'" font-size="40">in</tspan><tspan x="764.6" y="384" fill="#FFFFFF" font-family="'OpenSans'" font-size="40" letter-spacing="2"> </tspan><tspan x="777.8" y="384" fill="#FFFFFF" font-family="'OpenSans'" font-size="40">culpa</tspan><tspan x="878.3" y="384" fill="#FFFFFF" font-family="'OpenSans'" font-size="40" letter-spacing="2"> </tspan><tspan x="891.5" y="384" fill="#FFFFFF" font-family="'OpenSans'" font-size="40">qui</tspan><tspan x="950.7" y="384" fill="#FFFFFF" font-family="'OpenSans'" font-size="40" letter-spacing="2"> </tspan><tspan x="963.9" y="384" fill="#FFFFFF" font-family="'OpenSans'" font-size="40">officia </tspan><tspan x="0" y="432" fill="#FFFFFF" font-family="'OpenSans'" font-size="40">deserunt mollit anim id est laborum</tspan></text>
</g>
<g>
	<text transform="matrix(1 0 0 1 140.7374 3102.1782)" fill="#DFDDBE" font-family="'Oswald-Bold'" font-size="50">últimos diseÑos</text>
</g>
<g>
	<g>
		<rect x="-958.3" y="688" fill="#ADACB2" width="2560" height="1020.2"/>
		<line fill="none" stroke="#211915" stroke-miterlimit="10" x1="-958.3" y1="688" x2="1601.7" y2="1708.2"/>
		<line fill="none" stroke="#211915" stroke-miterlimit="10" x1="-958.3" y1="1708.2" x2="1601.7" y2="688"/>
	</g>
	<g opacity="0.5">
		<circle fill="#FFFFFF" cx="245" cy="1633.7" r="16"/>
		<circle fill="#FFFFFF" cx="321.7" cy="1633.7" r="16"/>
		<circle fill="#FFFFFF" cx="398.4" cy="1633.7" r="16"/>
	</g>
</g>
<text transform="matrix(1 0 0 1 806.5176 4499.3506)"><tspan x="0" y="0" fill="#FFFFFF" font-family="'Oswald-Bold'" font-size="144.8637">recibí las</tspan><tspan x="-585.5" y="173.8" fill="#FFFFFF" font-family="'Oswald-Bold'" font-size="144.8637">últimas novedades</tspan></text>
<line fill="none" stroke="#FFFFFF" stroke-miterlimit="10" x1="1465" y1="4843.3" x2="253.6" y2="4843.3"/>
<text transform="matrix(1 0 0 1 253.6106 4807.3408)" fill="#868589" font-family="'Univers-Light'" font-size="40">Ingresa tu email aca</text>
<rect x="-953.6" y="5150.1" fill="#18293D" width="2558.9" height="159.7"/>
<g id="OLaMTo_1_">
	<g>
		<g>
			<path fill="#FFFFFF" d="M1400.5,4784.8c0.3-1,1.1-1.3,2.1-1.3c11.5,0,23,0,34.5,0c0.9,0,0.9,0,0.9-0.8c0-3.2,0-6.3,0-9.5
				c0-0.6,0-1.2,0.2-1.8c0.3-0.7,0.8-0.9,1.5-0.6c0.3,0.1,0.6,0.3,0.9,0.5c7.1,5.5,14.2,10.9,21.4,16.4c1.6,1.2,3.2,2.5,4.7,3.8
				c1.5,1.3,1.5,2.7-0.1,4c-8,6.7-16.1,13.3-24.1,20c-0.6,0.5-1.2,1.1-1.9,1.5c-1.1,0.6-1.6,0.3-1.8-0.9c0-0.4,0-0.8,0-1.2
				c0-3.4,0-6.8,0-10.2c0-0.6-0.2-0.6-0.7-0.6c-11.7,0-23.4,0-35.1,0c-1.1,0-1.9-0.2-2.3-1.3
				C1400.5,4796.8,1400.5,4790.8,1400.5,4784.8z"/>
		</g>
	</g>
</g>
<g>
	<text transform="matrix(1 0 0 1 -827.556 5246.8369)" fill="#DFDDBE" font-family="'Impact'" font-size="32">© 2022 RICHICONCEPTS, todos los derechos reservados.</text>
</g>
<g>
	<path fill="#5F827A" d="M1419.8,5234.8c-0.8-0.3-1.6-0.6-2.3-1c-4.1-2-6.3-5.4-6.9-9.8c-0.2-1.1,0.1-1.4,1.2-0.8
		c1.2,0.6,2.5,0.7,4.3,1c-5.8-4.7-6.5-10.2-4-16.4c0.7,0,0.9,0.6,1.2,0.9c6.1,7,13.9,10.9,23.1,11.8c1.4,0.1,1.6-0.4,1.5-1.6
		c-0.9-8.7,6.7-14.2,13.1-13.7c2.9,0.2,5.4,1.3,7.6,3.3c0.6,0.5,1.1,0.7,1.9,0.5c2.2-0.6,4.3-1.4,6.7-2.7c-0.9,2.8-2.6,4.7-4.9,6.6
		c2.5-0.2,4.3-0.9,6.5-1.6c-1.5,2.3-3.1,4.1-5.1,5.5c-0.7,0.6-1,1.1-1,2c0,14.9-8.6,28.1-22.5,33.5c-10.7,4.2-21.1,2.9-31.1-2.7
		c-0.1,0-0.1-0.2-0.3-0.4c6.4,0.2,12.3-1.2,17.6-5.3c-5.2-0.4-8.7-2.8-10.9-7.2c-0.2-0.4-0.6-0.9-0.4-1.3c0.3-0.5,0.8-0.1,1.3-0.1
		C1417.6,5235.5,1418.7,5235.3,1419.8,5234.8z"/>
	<g>
		<path fill="#5F827A" d="M1357.5,5231.8c-0.1,3.6,0.1,8.1-0.1,12.6c-0.2,3.4-1.4,6.3-3.4,8.9c-3.7,5-8.8,6.9-14.8,6.9
			c-8.1,0-16.2,0-24.4,0c-8.5,0-14.5-6.6-16.1-13.6c-0.5-2-0.5-3.9-0.5-5.9c0-7.9,0-15.7,0-23.6c0-9.7,7.2-17.4,16.9-17.6
			c8.8-0.2,17.7-0.1,26.5,0c7.1,0.1,13.9,6.2,15.5,13.5c0.3,1.5,0.4,3.1,0.4,4.6C1357.5,5222.2,1357.5,5226.6,1357.5,5231.8z
			 M1352.9,5230.1C1352.9,5230.1,1352.9,5230.1,1352.9,5230.1c0-4.6,0.1-9.2,0-13.8c-0.2-6.1-5.3-11.9-11.7-12.1
			c-8.6-0.3-17.1-0.1-25.7-0.1c-6.6,0-12.4,5.7-12.6,12.2c-0.2,4.4,0,8.8-0.1,13.2c0,5-0.3,10,0.2,15c0.6,6,5.4,10.9,11.4,11.2
			c8.9,0.5,17.9,0.4,26.9,0.1c6-0.2,11.5-5.9,11.5-12.1C1352.9,5239.1,1352.9,5234.6,1352.9,5230.1z"/>
		<path fill="#5F827A" d="M1344.1,5229.3c-0.1,9.8-7,16.8-16.6,16.7c-8.8-0.1-15.7-7.3-15.7-16.4c0-8.8,7.3-16.2,16.1-16.1
			C1338.1,5213.7,1344.1,5220.4,1344.1,5229.3z M1328.5,5219.2c-6.1-0.5-10.7,4.1-11.2,9.7c-0.5,5.6,4.2,11.1,9.8,11.5
			c6.8,0.5,11-5.1,11.5-9.6C1339.2,5224,1335.1,5219.4,1328.5,5219.2z"/>
		<path fill="#5F827A" d="M1348.1,5213.2c0.3,2-1.6,3.7-3.5,3.7c-2.2,0-3.9-1.6-3.9-3.7c0-2.1,1.6-3.7,3.8-3.7
			C1346.7,5209.5,1348,5210.8,1348.1,5213.2z"/>
	</g>
</g>
<g>
	<g>
		<rect x="-827.6" y="3174.1" fill="#C2C3C8" width="728.4" height="927.5"/>
	</g>
	<g>
		
			<line fill="none" stroke="#211915" stroke-width="1.2342" stroke-miterlimit="10" x1="-827.6" y1="3174.1" x2="-99.2" y2="4101.6"/>
		
			<line fill="none" stroke="#211915" stroke-width="1.2342" stroke-miterlimit="10" x1="-827.6" y1="4101.6" x2="-99.2" y2="3174.1"/>
	</g>
</g>
<g>
	<g>
		<rect x="-42.5" y="3174.1" fill="#C2C3C8" width="728.4" height="927.5"/>
	</g>
	<g>
		
			<line fill="none" stroke="#211915" stroke-width="1.2342" stroke-miterlimit="10" x1="-42.5" y1="3174.1" x2="685.9" y2="4101.6"/>
		
			<line fill="none" stroke="#211915" stroke-width="1.2342" stroke-miterlimit="10" x1="-42.5" y1="4101.6" x2="685.9" y2="3174.1"/>
	</g>
</g>
<g>
	<g>
		<rect x="736.6" y="3174.1" fill="#C2C3C8" width="728.4" height="927.5"/>
	</g>
	<g>
		<line fill="none" stroke="#211915" stroke-width="1.2342" stroke-miterlimit="10" x1="736.6" y1="3174.1" x2="1465" y2="4101.6"/>
		<line fill="none" stroke="#211915" stroke-width="1.2342" stroke-miterlimit="10" x1="736.6" y1="4101.6" x2="1465" y2="3174.1"/>
	</g>
</g>
<g>
	<g>
		<path fill="#DFDDBE" d="M2024.7,2798.5c3.2,0,3.2-5,0-5C2021.5,2793.5,2021.5,2798.5,2024.7,2798.5L2024.7,2798.5z"/>
	</g>
</g>
<g>
	<g>
		<path fill="#18293D" d="M1936.7,2966.5c3.2,0,3.2-5,0-5C1933.5,2961.5,1933.5,2966.5,1936.7,2966.5L1936.7,2966.5z"/>
	</g>
</g>
<g>
	<g>
		<path fill="#6AAB92" d="M2584.7,4270.5c3.2,0,3.2-5,0-5S2581.5,4270.5,2584.7,4270.5L2584.7,4270.5z"/>
	</g>
</g>
<line fill="none" stroke="#DFDDBE" stroke-width="3.4286" stroke-miterlimit="10" x1="0" y1="1.7" x2="44.5" y2="1.7"/>
<line fill="none" stroke="#DFDDBE" stroke-width="3.4286" stroke-miterlimit="10" x1="0" y1="14.7" x2="44.5" y2="14.7"/>
<line fill="none" stroke="#DFDDBE" stroke-width="3.4286" stroke-miterlimit="10" x1="0" y1="27.7" x2="44.5" y2="27.7"/>
</svg>
