<?xml version="1.0" encoding="utf-8"?>
<!-- Generator: Adobe Illustrator 17.1.0, SVG Export Plug-In . SVG Version: 6.00 Build 0)  -->
<!DOCTYPE svg PUBLIC "-//W3C//DTD SVG 1.1//EN" "http://www.w3.org/Graphics/SVG/1.1/DTD/svg11.dtd">
<svg version="1.1" id="Capa_1" xmlns="http://www.w3.org/2000/svg" xmlns:xlink="http://www.w3.org/1999/xlink" x="0px" y="0px"
	 viewBox="0 0 59.3 60.8" enable-background="new 0 0 59.3 60.8" xml:space="preserve">
<g>
	<path fill="#50B298" d="M59.3,32.3c-0.1,3.6,0.1,8.1-0.1,12.6c-0.2,3.4-1.4,6.3-3.4,8.9c-3.7,5-8.8,6.9-14.8,6.9
		c-8.1,0-16.2,0-24.4,0c-8.5,0-14.5-6.6-16.1-13.6c-0.5-2-0.5-3.9-0.5-5.9c0-7.9,0-15.7,0-23.6C0,8,7.2,0.3,16.9,0.1
		c8.8-0.2,17.7-0.1,26.5,0c7.1,0.1,13.9,6.2,15.5,13.5c0.3,1.5,0.4,3.1,0.4,4.6C59.3,22.7,59.3,27.1,59.3,32.3z M54.6,30.6
		C54.6,30.6,54.6,30.6,54.6,30.6c0-4.6,0.1-9.2,0-13.8C54.5,10.7,49.4,4.9,43,4.6c-8.6-0.3-17.1-0.1-25.7-0.1
		c-6.6,0-12.4,5.7-12.6,12.2c-0.2,4.4,0,8.8-0.1,13.2c0,5-0.3,10,0.2,15c0.6,6,5.4,10.9,11.4,11.2c8.9,0.5,17.9,0.4,26.9,0.1
		c6-0.2,11.5-5.9,11.5-12.1C54.6,39.5,54.6,35.1,54.6,30.6z"/>
	<path fill="#50B298" d="M45.8,29.7c-0.1,9.8-7,16.8-16.6,16.7c-8.8-0.1-15.7-7.3-15.7-16.4c0-8.8,7.3-16.2,16.1-16.1
		C39.8,14.2,45.8,20.9,45.8,29.7z M30.2,19.7c-6.1-0.5-10.7,4.1-11.2,9.7c-0.5,5.6,4.2,11.1,9.8,11.5c6.8,0.5,11-5.1,11.5-9.6
		C40.9,24.5,36.9,19.9,30.2,19.7z"/>
	<path fill="#50B298" d="M49.8,13.7c0.3,2-1.6,3.7-3.5,3.7c-2.2,0-3.9-1.6-3.9-3.7c0-2.1,1.6-3.7,3.8-3.7
		C48.5,9.9,49.8,11.3,49.8,13.7z"/>
</g>
</svg>
